<svg xmlns="http://www.w3.org/2000/svg" viewBox="0 0 24 24" width="24" height="24">
  <defs>
    <clipPath clipPathUnits="userSpaceOnUse" id="clipPath18">
      <path d="M 0,163.216 H 320.667 V 0 H 0 Z" id="path16"/>
    </clipPath>
  </defs>
  <g id="g14" transform="matrix(0.240601, 0, 0, -0.240601, 0, 39.269935)" clip-path="url(#clipPath18)">
    <g id="g20" transform="matrix(1, 0, 0, 1, 59.5835, 90.511749)">
      <path d="m 0,0 -19.438,22.829 6.3,7.399 -9.708,11.402 -12.425,-14.594 c -5.557,-6.554 -5.517,-16.203 0.037,-22.759 l 6.088,7.15 19.437,-22.829 z" style="fill-opacity: 1; fill-rule: nonzero; stroke: none; fill: rgb(126, 126, 126);" id="path22"/>
    </g>
    <g id="g24" transform="matrix(1, 0, 0, 1, 40.166508, 136.170242)">
      <path d="m 0,0 19.438,-22.829 -6.3,-7.399 9.708,-11.402 12.425,14.594 c 5.557,6.554 5.517,16.203 -0.037,22.759 l -6.088,-7.15 -19.437,22.829 z" style="fill-opacity: 1; fill-rule: nonzero; stroke: none; fill: rgb(126, 126, 126);" id="path26"/>
    </g>
    <path d="M 31.044 16.132 C 29.387 16.132 28.044 14.789 28.044 13.132 L 28.044 4 L 40 16.132 L 31.044 16.132 Z M 40 16.132 L 40 41 C 40 42.657 38.657 44 37 44 L 11 44 C 9.343 44 8 42.657 8 41 L 8 7 C 8 5.343 9.343 4 11 4 L 28.044 4" style="fill: none; stroke-miterlimit: 5; stroke-linecap: round; stroke-linejoin: round;" transform="matrix(0.75, 0, 0, -0.75, 58.484625, 85.142147)"/>
  </g>
</svg>